<?xml version="1.0" standalone="no"?><!DOCTYPE svg PUBLIC "-//W3C//DTD SVG 1.1//EN" "http://www.w3.org/Graphics/SVG/1.1/DTD/svg11.dtd"><svg t="1598787264638" class="icon" viewBox="0 0 1024 1024" version="1.1" xmlns="http://www.w3.org/2000/svg" p-id="7990" xmlns:xlink="http://www.w3.org/1999/xlink" width="128" height="128"><defs><style type="text/css"></style></defs><path d="M876.93312 625.83808l34.24256-269.9776L665.5488 262.656l-77.78304 37.14048c-2.39616 11.8784-6.0416 23.43936-10.8032 34.56l58.88-28.11904L611.5328 567.90016l1.36192 14.01856-179.4048 27.06432-14.72512 29.04064 196.72064-29.65504 22.6816 232.07936 26.39872-2.60096-22.82496-233.4208 2.304-0.3584 205.68064 26.0608 0.50176-4.02432 31.0784 261.0176-214.20032-49.43872L388.37248 890.7776 386.048 890.33728l25.05728-238.08-0.16384-1.44384-1.024-8.91904-34.34496-67.79904 4.84352 42.88512-6.12352 0.9216-198.69696-30.78144 1.1776-9.7792L146.3296 337.31584l139.01824 58.69568-11.60192-22.87616c-3.75808-4.864-7.15776-9.96352-10.38336-15.1552l-149.15584-62.99648 35.84 282.46016-0.67584 5.62176-0.50176-0.08192L144.7936 609.1776l1.46432 0.21504-30.6176 257.21856 272.76288 51.13856 278.20032-52.98176 245.52448 56.65792L876.93312 625.83808zM643.74784 577.28l-4.57728 0.67584-1.00352-9.96352 25.55904-275.07712 3.0208-1.44384 215.48032 81.75616-29.25568 230.54336L643.74784 577.28zM359.89504 885.44256l-214.99904-40.32512 27.5968-231.63904 201.75872 31.26272 9.1648-1.3824 1.024 9.00096L359.89504 885.44256zM413.36832 648.68352l-3.44064-6.77888-0.27648-2.49856 9.12384-1.3824L413.36832 648.68352zM294.36928 350.464l117.15584 231.19872 115.87584-228.72064c22.76352-26.54208 36.59776-60.93824 36.59776-98.58048 0-83.70176-68.096-151.79776-151.79776-151.79776s-151.77728 68.096-151.77728 151.79776c0 36.44416 12.92288 69.89824 34.39616 96.1024L294.36928 350.464zM412.2112 161.06496c51.43552 0 93.29664 41.86112 93.29664 93.29664s-41.86112 93.29664-93.29664 93.29664-93.29664-41.86112-93.29664-93.29664S360.76544 161.06496 412.2112 161.06496z" p-id="7991"></path></svg>