<?xml version="1.0" standalone="no"?><!DOCTYPE svg PUBLIC "-//W3C//DTD SVG 1.1//EN" "http://www.w3.org/Graphics/SVG/1.1/DTD/svg11.dtd"><svg t="1598787279620" class="icon" viewBox="0 0 1024 1024" version="1.1" xmlns="http://www.w3.org/2000/svg" p-id="8129" xmlns:xlink="http://www.w3.org/1999/xlink" width="128" height="128"><defs><style type="text/css"></style></defs><path d="M146.24768 529.3568l-30.6176 257.20832 272.76288 51.1488 278.20032-52.992 245.52448 56.65792-35.18464-295.58784 34.24256-269.9776-245.61664-93.21472L370.91328 323.33824 114.20672 214.92736l35.84 282.46016-0.67584 5.62176-0.50176-0.07168-4.07552 26.20416L146.24768 529.3568zM380.42624 536.94464l-6.12352 0.9216L175.60576 507.0848l1.1776-9.78944L146.3296 257.28l212.62336 89.78432L380.42624 536.94464zM852.97152 523.73504l-209.22368-26.50112-4.57728 0.67584-1.00352-9.96352 25.55904-275.07712 3.0208-1.44384 215.48032 81.75616L852.97152 523.73504zM386.048 810.30144l25.05728-238.08-0.16384-1.44384-1.30048-11.4176 205.84448-31.03744 22.6816 232.06912 26.39872-2.59072-22.82496-233.43104 2.304-0.34816 205.68064 26.05056 0.50176-4.01408 31.0784 261.00736-214.20032-49.42848-278.74304 53.10464L386.048 810.30144zM385.49504 345.76384l250.35776-119.57248L611.5328 487.86432l1.36192 14.01856-206.22336 31.09888L385.49504 345.76384zM172.4928 533.43232l201.75872 31.27296 9.1648-1.39264 1.024 9.0112-24.53504 233.08288-214.99904-40.32512L172.4928 533.43232z" p-id="8130"></path></svg>